# xmcd
#
# Track frame offsets:
#	150
#	12491
#	21995
#	34112
#	46450
#	58232
#	69136
#	80039
#	92376
#	105171
#	114860
#	125426
#	136481
#	149739
#	162120
#
# Disc length: 2316 seconds
#
# Revision: 1
# Processed by: cddbd v1.5.1PL0 Copyright (c) Steve Scherf et al.
# Submitted via: audiograbber 1.83.01
#
DISCID=c6090a0f
DTITLE=Various Artist - Classic Country: Honkey Tonk Heroes Disc 2
DYEAR=2004
DGENRE=Country
TTITLE0=Hank Williams - Your Cheatin' Heart
TTITLE1=Webb Price - Honk Tonk Song
TTITLE2=Red Foley - Tennessee Saturday Night
TTITLE3=Hank Thompson and His Brazos Valley Boys - The Wild Side Of Life
TTITLE4=Don Gibson - I Can't Stop Loving You
TTITLE5=Webb Price - There Stands The Glass
TTITLE6=Hank Williams - Why Don't You Love Me
TTITLE7=Buck Owens - Under Your Spell Again
TTITLE8=Ernest Tubb - Walking The Floor Over You
TTITLE9=Hank Thompson and His Brazos Valley Boys - A Six Pack To Go
TTITLE10=Jim Ed Brown - Pop A Top
TTITLE11=Buck Owens - Together Again
TTITLE12=Conway Twitty - How Much More Can She Stand
TTITLE13=Freddy Fender - Wasted Days and Wasted Nights
TTITLE14=Jerry Lee Lewis - What's Made Milwaulkee Famous (Has Made A Loser Out 
TTITLE14=Of Me)
EXTD=
EXTT0=
EXTT1=
EXTT2=
EXTT3=
EXTT4=
EXTT5=
EXTT6=
EXTT7=
EXTT8=
EXTT9=
EXTT10=
EXTT11=
EXTT12=
EXTT13=
EXTT14=
PLAYORDER=
